HIERARCHY
ROOT Hips
{
	OFFSET 0.000000 0.000000 0.000000
	CHANNELS 6 Xposition Yposition Zposition Zrotation Yrotation Xrotation 
	JOINT LowerBack
	{
		OFFSET 0.000000 0.000000 0.000000
		CHANNELS 3 Zrotation Yrotation Xrotation
		JOINT Spine
		{
			OFFSET 0.028270 2.035590 -0.193380
			CHANNELS 3 Zrotation Yrotation Xrotation
			JOINT Spine1
			{
				OFFSET 0.056720 2.048850 -0.042750
				CHANNELS 3 Zrotation Yrotation Xrotation
				JOINT Neck
				{
					OFFSET 0.000000 0.000000 0.000000
					CHANNELS 3 Zrotation Yrotation Xrotation
					JOINT Neck1
					{
						OFFSET -0.054170 1.746240 0.172020
						CHANNELS 3 Zrotation Yrotation Xrotation
						JOINT Head
						{
							OFFSET 0.104070 1.761360 -0.123970
							CHANNELS 3 Zrotation Yrotation Xrotation
							End Site
							{
								OFFSET 0.000000 0.000000 0.000000
							}
						}
					}
				}
				JOINT LeftShoulder
				{
					OFFSET 0.000000 0.000000 0.000000
					CHANNELS 3 Zrotation Yrotation Xrotation
					JOINT LeftArm
					{
						OFFSET 3.362410 1.200890 -0.311210
						CHANNELS 3 Zrotation Yrotation Xrotation
						JOINT LeftForeArm
						{
							OFFSET 4.983000 -0.000000 -0.000000
							CHANNELS 3 Zrotation Yrotation Xrotation
							JOINT LeftHand
							{
								OFFSET 3.483560 -0.000000 -0.000000
								CHANNELS 3 Zrotation Yrotation Xrotation
								JOINT LeftFingerBase
								{
									OFFSET 0.000000 0.000000 0.000000
									CHANNELS 3 Zrotation Yrotation Xrotation
									JOINT LeftHandIndex1
									{
										OFFSET 0.715260 -0.000000 -0.000000
										CHANNELS 3 Zrotation Yrotation Xrotation
										End Site
										{
											OFFSET 0.000000 0.000000 0.000000
										}
									}
								}
								JOINT LThumb
								{
									OFFSET 0.000000 0.000000 0.000000
									CHANNELS 3 Zrotation Yrotation Xrotation
									End Site
									{
										OFFSET 0.000000 0.000000 0.000000
									}
								}
							}
						}
					}
				}
				JOINT RightShoulder
				{
					OFFSET 0.000000 0.000000 0.000000
					CHANNELS 3 Zrotation Yrotation Xrotation
					JOINT RightArm
					{
						OFFSET -3.136600 1.374050 -0.404650
						CHANNELS 3 Zrotation Yrotation Xrotation
						JOINT RightForeArm
						{
							OFFSET -5.241900 -0.000000 -0.000000
							CHANNELS 3 Zrotation Yrotation Xrotation
							JOINT RightHand
							{
								OFFSET -3.444170 -0.000000 -0.000000
								CHANNELS 3 Zrotation Yrotation Xrotation
								JOINT RightFingerBase
								{
									OFFSET 0.000000 0.000000 0.000000
									CHANNELS 3 Zrotation Yrotation Xrotation
									JOINT RightHandIndex1
									{
										OFFSET -0.622530 -0.000000 -0.000000
										CHANNELS 3 Zrotation Yrotation Xrotation
										End Site
										{
											OFFSET 0.000000 0.000000 0.000000
										}
									}
								}
								JOINT RThumb
								{
									OFFSET 0.000000 0.000000 0.000000
									CHANNELS 3 Zrotation Yrotation Xrotation
									End Site
									{
										OFFSET 0.000000 0.000000 0.000000
									}
								}
							}
						}
					}
				}
			}
		}
	}
}
}
MOTION
Frames: 11
Frame Time: 0.008333
-21.420043 16.398371 -2.949248 -39.125098 86.829197 -15.740483 7.594094 -3.786822 -1.059889 1.003419 -4.333278 -2.820847 -6.429688 -4.369952 1.888362 7.915704 -11.378115 -6.300987 -3.162217 -0.250173 0.293026 0.000000 0.000000 0.000000 -4.013055 1.684739 2.373184 -42.235869 -10.112730 10.671503 -2.307726 -55.804346 -0.005480 3.163670 0.212673 0.003572 -0.163942 0.145170 0.000000 0.000000 0.000000 0.000000 0.000000 0.000000 0.000000 12.787266 -11.395794 1.172584 55.440263 -7.688784 2.791915 3.601084 35.366284 0.010770 5.603314 4.387738 0.213389 0.089439 -0.032430 -0.000000 0.000000 0.000000 0.000000 0.000000 0.000000 0.000000 
-21.265921 16.406116 -2.915780 -44.887558 86.927216 -21.566034 8.086753 -3.848615 -0.903250 1.092788 -4.414952 -2.809341 -6.497990 -4.452373 1.840579 8.021276 -11.122924 -6.316752 -3.274166 -0.257880 0.284275 0.000000 0.000000 0.000000 -4.253659 1.710101 2.399776 -42.870435 -9.453396 10.545513 -2.371162 -55.172811 -0.005121 3.237830 0.130985 0.001266 -0.164579 0.139389 0.000000 0.000000 0.000000 0.000000 0.000000 0.000000 0.000000 13.342006 -11.237845 1.158640 55.011620 -7.143391 2.800674 3.614983 35.163805 0.010739 5.520195 4.437285 0.212484 0.089423 -0.031885 -0.000000 0.000000 0.000000 0.000000 0.000000 0.000000 0.000000 
-21.111930 16.416478 -2.881323 -50.421370 87.009578 -27.179726 8.531108 -3.909218 -0.747876 1.169380 -4.492126 -2.796746 -6.566357 -4.530104 1.799996 8.142085 -10.857937 -6.323359 -3.389505 -0.265912 0.277858 0.000000 0.000000 0.000000 -4.457556 1.755171 2.419141 -43.550911 -8.849479 10.454021 -2.437265 -54.416201 -0.004775 3.321503 0.054879 -0.000845 -0.164902 0.133288 0.000000 0.000000 0.000000 0.000000 0.000000 0.000000 0.000000 13.929061 -11.077655 1.137466 54.581309 -6.560662 2.813963 3.630157 34.916801 0.010712 5.433743 4.502193 0.212079 0.089376 -0.031178 -0.000000 0.000000 0.000000 0.000000 0.000000 0.000000 0.000000 
-20.958035 16.429261 -2.845437 -55.578234 87.073465 -32.423514 8.920863 -3.962431 -0.605548 1.231632 -4.559295 -2.786775 -6.635713 -4.597946 1.760617 8.278455 -10.585617 -6.313285 -3.508458 -0.274409 0.276236 0.000000 0.000000 0.000000 -4.610565 1.769950 2.428924 -44.282036 -8.228327 10.374656 -2.501656 -53.569390 -0.004419 3.400419 -0.009714 -0.002664 -0.164487 0.126701 0.000000 0.000000 0.000000 0.000000 0.000000 0.000000 0.000000 14.545758 -10.915802 1.113179 54.157832 -5.949919 2.825939 3.647899 34.614345 0.010699 5.343760 4.579533 0.212075 0.089400 -0.030338 -0.000000 0.000000 0.000000 0.000000 0.000000 0.000000 0.000000 
-20.804379 16.444302 -2.808010 -60.347637 87.119803 -37.279211 9.259303 -4.005325 -0.483748 1.280707 -4.614498 -2.779548 -6.706370 -4.653863 1.727039 8.429505 -10.310348 -6.290729 -3.629522 -0.283209 0.278328 0.000000 0.000000 0.000000 -4.717662 1.775311 2.430188 -45.047507 -7.626111 10.327379 -2.564799 -52.624601 -0.004063 3.469883 -0.058020 -0.004088 -0.163422 0.119699 0.000000 0.000000 0.000000 0.000000 0.000000 0.000000 0.000000 15.187316 -10.754119 1.085148 53.750899 -5.306743 2.823439 3.668684 34.247458 0.010689 5.254142 4.661517 0.212071 0.089489 -0.029353 -0.000000 0.000000 0.000000 0.000000 0.000000 0.000000 0.000000 
-20.651271 16.461398 -2.768965 -64.711316 87.152178 -41.720720 9.547158 -4.036110 -0.389283 1.317181 -4.656705 -2.776107 -6.778482 -4.696865 1.699767 8.594399 -10.040194 -6.257627 -3.751646 -0.292228 0.283757 0.000000 0.000000 0.000000 -4.778767 1.763335 2.423099 -45.838947 -7.032508 10.311031 -2.625144 -51.597907 -0.003704 3.520277 -0.086318 -0.004923 -0.161627 0.112302 0.000000 0.000000 0.000000 0.000000 0.000000 0.000000 0.000000 15.849212 -10.599082 1.055334 53.365756 -4.622689 2.808307 3.693070 33.805301 0.010682 5.161560 4.744416 0.211867 0.089713 -0.028254 -0.000000 0.000000 0.000000 0.000000 0.000000 0.000000 0.000000 
-20.499108 16.480416 -2.728583 -68.728452 87.172971 -45.802843 9.791634 -4.054367 -0.325020 1.342998 -4.686314 -2.776446 -6.852271 -4.727293 1.680829 8.769475 -9.764797 -6.217017 -3.873554 -0.301324 0.291629 0.000000 0.000000 0.000000 -4.806153 1.760660 2.411194 -46.635617 -6.487239 10.349876 -2.684089 -50.487087 -0.003352 3.548850 -0.090950 -0.004860 -0.159355 0.104670 0.000000 0.000000 0.000000 0.000000 0.000000 0.000000 0.000000 16.522084 -10.436490 1.023591 53.015532 -3.910984 2.746306 3.720929 33.291723 0.010662 5.077317 4.816410 0.211464 0.089977 -0.027058 -0.000000 0.000000 0.000000 0.000000 0.000000 0.000000 0.000000 
-20.348330 16.501195 -2.687111 -72.419023 87.184521 -49.541724 9.996819 -4.060088 -0.292352 1.359172 -4.703805 -2.781867 -6.928113 -4.745767 1.666041 8.951222 -9.473743 -6.166685 -3.994715 -0.310486 0.302594 0.000000 0.000000 0.000000 -4.804926 1.756368 2.397161 -47.426686 -5.970680 10.441820 -2.740375 -49.319039 -0.003016 3.547887 -0.069239 -0.004003 -0.156619 0.096878 0.000000 0.000000 0.000000 0.000000 0.000000 0.000000 0.000000 17.196731 -10.253173 0.992799 52.709604 -3.187699 2.615836 3.752153 32.711483 0.010621 5.005796 4.870235 0.210658 0.090258 -0.025834 -0.000000 0.000000 0.000000 0.000000 0.000000 0.000000 0.000000 
-20.199097 16.523616 -2.644786 -75.769592 87.190387 -52.922706 10.163023 -4.054288 -0.288787 1.366220 -4.710108 -2.791591 -7.005155 -4.753175 1.655759 9.138462 -9.182208 -6.111896 -4.113707 -0.319561 0.315212 0.000000 0.000000 0.000000 -4.777100 1.743274 2.381004 -48.207507 -5.468129 10.578500 -2.792453 -48.119158 -0.002692 3.510308 -0.022691 -0.002249 -0.153398 0.089021 0.000000 0.000000 0.000000 0.000000 0.000000 0.000000 0.000000 17.868086 -10.063585 0.965680 52.444623 -2.427285 2.445938 3.786557 32.053552 0.010579 4.931022 4.909898 0.209054 0.090687 -0.024673 -0.000000 0.000000 0.000000 0.000000 0.000000 0.000000 0.000000 
-20.051766 16.547595 -2.602077 -78.817556 87.190943 -55.984830 10.296908 -4.038372 -0.309005 1.365678 -4.706642 -2.805341 -7.083439 -4.750998 1.646950 9.326963 -8.875733 -6.051864 -4.229844 -0.328489 0.329575 0.000000 0.000000 0.000000 -4.732711 1.727466 2.366294 -48.965042 -4.983106 10.766973 -2.840490 -46.906442 -0.002392 3.434941 0.048036 0.000303 -0.149868 0.081241 0.000000 0.000000 0.000000 0.000000 0.000000 0.000000 0.000000 18.526151 -9.850480 0.943820 52.228302 -1.646646 2.213666 3.823311 31.328866 0.010530 4.857327 4.930913 0.206749 0.091191 -0.023659 -0.000000 0.000000 0.000000 0.000000 0.000000 0.000000 0.000000 
-19.907031 16.573061 -2.559345 -81.577560 87.186487 -58.746423 10.403043 -4.014188 -0.345319 1.358850 -4.694901 -2.821719 -7.162106 -4.740713 1.638861 9.513699 -8.556170 -5.989311 -4.341872 -0.337136 0.344820 0.000000 0.000000 0.000000 -4.678826 1.712512 2.354407 -49.691708 -4.514692 11.008205 -2.884090 -45.701899 -0.002120 3.321768 0.139068 0.003254 -0.146141 0.073665 0.000000 0.000000 0.000000 0.000000 0.000000 0.000000 0.000000 19.162716 -9.614543 0.928770 52.061000 -0.837704 1.928822 3.861598 30.537522 0.010487 4.776131 4.937285 0.203346 0.091795 -0.022891 -0.000000 0.000000 0.000000 0.000000 0.000000 0.000000 0.000000 
